<svg height="464pt" viewBox="0 -16 464 464" width="464pt" xmlns="http://www.w3.org/2000/svg"><path d="m0 32h464v400h-464zm0 0" fill="#cfdfe8"/><path d="m0 32h464v112h-464zm0 0" fill="#e9686a"/><g fill="#7d8d9c"><path d="m88 192h64v64h-64zm0 0"/><path d="m200 192h64v64h-64zm0 0"/><path d="m312 192h64v64h-64zm0 0"/><path d="m200 304h64v64h-64zm0 0"/><path d="m312 304h64v64h-64zm0 0"/></g><path d="m168 336c0-22.089844-25.070312-40-56-40s-56 17.910156-56 40 25.070312 40 56 40 56-17.910156 56-40zm0 0" fill="#fff"/><path d="m112 355.3125-21.65625-21.65625 11.3125-11.3125 10.34375 10.34375 58.34375-58.34375 11.3125 11.3125zm0 0" fill="#e9686a"/><path d="m40 104h64v16h-64zm0 0" fill="#fff"/><path d="m136 104h16v16h-16zm0 0" fill="#fff"/><path d="m216 0h32v64h-32zm0 0" fill="#394d5c"/><path d="m296 0h32v64h-32zm0 0" fill="#394d5c"/><path d="m56 0h32v64h-32zm0 0" fill="#394d5c"/><path d="m136 0h32v64h-32zm0 0" fill="#394d5c"/><path d="m376 0h32v64h-32zm0 0" fill="#394d5c"/></svg>