<svg height="464pt" viewBox="0 0 464 464.002" width="464pt" xmlns="http://www.w3.org/2000/svg"><path d="m92.457031 27.703125 355.078125 96.660156-92.457031 339.640625-355.078125-96.660156zm0 0" fill="#546977"/><path d="m96.003906 48h368v352h-368zm0 0" fill="#cfdfe8"/><g fill="#394d5c"><path d="m168.003906 200h48v16h-48zm0 0"/><path d="m232.003906 200h120v16h-120zm0 0"/><path d="m232.003906 248h72v16h-72zm0 0"/><path d="m216.003906 136 87.996094-88 24.003906 24.003906-88 87.996094zm0 0"/></g><path d="m376.003906 40c0 22.089844-17.910156 40-40 40-22.09375 0-40-17.910156-40-40s17.90625-40 40-40c22.089844 0 40 17.910156 40 40zm0 0" fill="#e9686a"/></svg>