<svg height="472pt" viewBox="-44 0 472 472" width="472pt" xmlns="http://www.w3.org/2000/svg"><path d="m296 208c0-57.4375-46.5625-104-104-104s-104 46.5625-104 104c.699219 37.601562 18.339844 72.878906 48 96v40h112v-40c29.660156-23.121094 47.300781-58.398438 48-96zm0 0" fill="#fdbd40"/><path d="m104 344h176v80h-176zm0 0" fill="#cfdfe8"/><path d="m136 424h112c0 26.507812-21.492188 48-48 48h-16c-26.507812 0-48-21.492188-48-48zm0 0" fill="#cfdfe8"/><g fill="#e97424"><path d="m192 64c-4.417969 0-8-3.582031-8-8v-48c0-4.417969 3.582031-8 8-8s8 3.582031 8 8v48c0 4.417969-3.582031 8-8 8zm0 0"/><path d="m312 128c-3.234375 0-6.152344-1.949219-7.390625-4.9375s-.550781-6.429688 1.734375-8.71875l32-32c3.140625-3.03125 8.128906-2.988281 11.214844.097656 3.085937 3.085938 3.128906 8.074219.097656 11.214844l-32 32c-1.5 1.5-3.535156 2.34375-5.65625 2.34375zm0 0"/><path d="m72 128c-2.121094 0-4.15625-.84375-5.65625-2.34375l-32-32c-3.03125-3.140625-2.988281-8.128906.097656-11.214844 3.085938-3.085937 8.074219-3.128906 11.214844-.097656l32 32c2.285156 2.289062 2.972656 5.730469 1.734375 8.71875s-4.15625 4.9375-7.390625 4.9375zm0 0"/><path d="m376 248h-48c-4.417969 0-8-3.582031-8-8s3.582031-8 8-8h48c4.417969 0 8 3.582031 8 8s-3.582031 8-8 8zm0 0"/><path d="m56 248h-48c-4.417969 0-8-3.582031-8-8s3.582031-8 8-8h48c4.417969 0 8 3.582031 8 8s-3.582031 8-8 8zm0 0"/></g><path d="m240 200h-32v-32h-32v32h-32v32h32v32h32v-32h32zm0 0" fill="#238892"/><path d="m104 392h176v32h-176zm0 0" fill="#546977"/></svg>